# xmcd
#
# Track frame offsets: 
#        150
#        12340
#        24892
#        35947
#        47037
#        56907
#        68225
#        79817
#        89440
#        99230
#        119004
#        136825
#        151515
#        163967
#        177012
#        186160
#        197417
#        210627
#
# Disc length: 2959 seconds
#
# Revision: 2
# Processed by: cddbd v1.5.1PL0 Copyright (c) Steve Scherf et al.
# Submitted via: ExactAudioCopy v0.95a5
#
DISCID=f00b8d12
DTITLE=Marty Robbins - The Story Of My Life: The Best Of Marty Robbins
DYEAR=1996
DGENRE=Pop/Country
TTITLE0=I'll Go On Alone
TTITLE1=I Couldn't Keep From Crying
TTITLE2=I Can't Quit (I've Gone Too Far)
TTITLE3=Singing The Blues
TTITLE4=Knee Deep In The Blues
TTITLE5=A White Sport Coat (And A Pink Carnation)
TTITLE6=The Story Of My Life
TTITLE7=Just Married
TTITLE8=Stairway Of Love
TTITLE9=El Paso
TTITLE10=Big Iron
TTITLE11=Don't Worry
TTITLE12=It's Your World
TTITLE13=Devil Woman
TTITLE14=Ruby Ann
TTITLE15=Begging To You
TTITLE16=The Cowboy In The Continental Suit
TTITLE17=Ribbon Of Darkness
EXTD=
EXTT0=
EXTT1=
EXTT2=
EXTT3=
EXTT4=
EXTT5=
EXTT6=
EXTT7=
EXTT8=
EXTT9=
EXTT10=
EXTT11=
EXTT12=
EXTT13=
EXTT14=
EXTT15=
EXTT16=
EXTT17=
PLAYORDER=
